<svg version="1.0" xmlns="http://www.w3.org/2000/svg" width="933.333" height="933.333" viewBox="0 0 700 700"><path d="M86.5 19.5C69.4 23.3 56.1 30.7 43 43.9c-15.5 15.6-23 32-25 54.2-1.4 15.6-1.4 488.2 0 503.8 2 21.9 9.6 38.6 24.5 53.7 10.4 10.5 18.7 16.2 30 20.5 17.6 6.8-4.8 6.3 268 6.7 166.3.2 251.2 0 259.8-.7 23.4-1.9 39.8-9.2 55.3-24.6 10.5-10.4 16.2-18.7 20.5-30 6.9-17.9 6.4 5.4 6.4-277.5 0-233.8-.1-256.1-1.6-262.5-4.4-18.6-12.9-33.6-26.3-46.2-9.6-9.1-19.3-14.9-32.6-19.5l-9.5-3.3-260-.2c-212.8-.1-261.1.1-266 1.2zm522.6 35.1c17.7 5.2 31.1 18.6 36.3 36.3 1.4 4.9 1.6 29.8 1.6 259.1s-.2 254.2-1.6 259.1c-5.2 17.7-18.6 31.1-36.3 36.3-4.9 1.4-29.8 1.6-259.1 1.6s-254.2-.2-259.1-1.6c-17.7-5.2-31.1-18.6-36.3-36.3-1.4-4.9-1.6-29.8-1.6-259.1s.2-254.2 1.6-259.1c5.1-17.3 17-29.7 34.4-35.6l6.5-2.2 254.1-.1c229.7 0 254.6.2 259.5 1.6z"/><path d="M342.4 123.1c-25.3 3.2-44.6 25.4-44.6 51.4-.1 15.4 4.6 26.9 15.2 37.5 10.6 10.6 22.1 15.2 37.6 15.2 23.8 0 44.1-15.8 50.4-39.2 1.6-5.8 1.6-20.2 0-26-7.1-26.1-31.5-42.4-58.6-38.9zM167.4 298.1c-25.3 3.2-44.6 25.4-44.6 51.4-.1 15.4 4.6 26.9 15.2 37.5 10.6 10.6 22.1 15.2 37.6 15.2 23.8 0 44.1-15.8 50.4-39.2 1.6-5.8 1.6-20.2 0-26-7.1-26.1-31.5-42.4-58.6-38.9zM517.4 298.1c-25.3 3.2-44.6 25.4-44.6 51.4-.1 15.4 4.6 26.9 15.2 37.5 10.6 10.6 22.1 15.2 37.6 15.2 19.9 0 37.6-11 46.2-28.6 4.2-8.7 5.4-13.9 5.4-23.6 0-9.7-1.2-14.9-5.4-23.6-9.7-19.9-31.5-31.2-54.4-28.3zM342.4 473.1c-25.3 3.2-44.6 25.4-44.6 51.4-.1 15.4 4.6 26.9 15.2 37.5 10.6 10.6 22.1 15.2 37.6 15.2 23.8 0 44.1-15.8 50.4-39.2 1.6-5.8 1.6-20.2 0-26-7.1-26.1-31.5-42.4-58.6-38.9z"/></svg>
